<svg xmlns="http://www.w3.org/2000/svg" xmlns:xlink="http://www.w3.org/1999/xlink" width="310" zoomAndPan="magnify" viewBox="0 0 232.5 85.499998" height="114" preserveAspectRatio="xMidYMid meet" version="1.0"><defs><g/><clipPath id="e2e0daac94"><path d="M 0.425781 0 L 40.691406 0 L 40.691406 40.265625 L 0.425781 40.265625 Z M 0.425781 0 " clip-rule="nonzero"/></clipPath><clipPath id="ee2d06fb72"><path d="M 0.425781 44.269531 L 40.691406 44.269531 L 40.691406 84.535156 L 0.425781 84.535156 Z M 0.425781 44.269531 " clip-rule="nonzero"/></clipPath></defs><g clip-path="url(#e2e0daac94)"><path fill="#e4279e" d="M 41.019531 20.296875 C 41.019531 20.960938 40.984375 21.625 40.921875 22.285156 C 40.855469 22.945312 40.757812 23.601562 40.628906 24.253906 C 40.5 24.90625 40.335938 25.550781 40.144531 26.1875 C 39.953125 26.824219 39.726562 27.449219 39.472656 28.0625 C 39.21875 28.675781 38.933594 29.277344 38.621094 29.863281 C 38.308594 30.449219 37.96875 31.019531 37.597656 31.570312 C 37.226562 32.125 36.832031 32.65625 36.410156 33.171875 C 35.988281 33.683594 35.542969 34.175781 35.074219 34.644531 C 34.605469 35.117188 34.113281 35.5625 33.597656 35.984375 C 33.085938 36.40625 32.550781 36.800781 32 37.171875 C 31.445312 37.539062 30.875 37.882812 30.289062 38.195312 C 29.703125 38.507812 29.101562 38.792969 28.488281 39.046875 C 27.875 39.300781 27.25 39.523438 26.613281 39.71875 C 25.976562 39.910156 25.335938 40.070312 24.683594 40.199219 C 24.03125 40.332031 23.375 40.429688 22.710938 40.492188 C 22.050781 40.558594 21.386719 40.589844 20.722656 40.589844 C 20.058594 40.589844 19.394531 40.558594 18.734375 40.492188 C 18.070312 40.429688 17.414062 40.332031 16.761719 40.199219 C 16.113281 40.070312 15.46875 39.910156 14.832031 39.71875 C 14.195312 39.523438 13.570312 39.300781 12.957031 39.046875 C 12.34375 38.792969 11.742188 38.507812 11.15625 38.195312 C 10.570312 37.882812 10 37.539062 9.445312 37.171875 C 8.894531 36.800781 8.359375 36.40625 7.847656 35.984375 C 7.332031 35.5625 6.839844 35.117188 6.371094 34.644531 C 5.902344 34.175781 5.457031 33.683594 5.035156 33.171875 C 4.613281 32.65625 4.21875 32.125 3.847656 31.570312 C 3.476562 31.019531 3.136719 30.449219 2.824219 29.863281 C 2.511719 29.277344 2.226562 28.675781 1.972656 28.0625 C 1.71875 27.449219 1.496094 26.824219 1.300781 26.1875 C 1.109375 25.550781 0.945312 24.90625 0.816406 24.253906 C 0.6875 23.601562 0.589844 22.945312 0.523438 22.285156 C 0.460938 21.625 0.425781 20.960938 0.425781 20.296875 C 0.425781 19.628906 0.460938 18.96875 0.523438 18.304688 C 0.589844 17.644531 0.6875 16.988281 0.816406 16.335938 C 0.945312 15.683594 1.109375 15.039062 1.300781 14.402344 C 1.496094 13.769531 1.71875 13.144531 1.972656 12.527344 C 2.226562 11.914062 2.511719 11.3125 2.824219 10.726562 C 3.136719 10.140625 3.476562 9.574219 3.847656 9.019531 C 4.21875 8.46875 4.613281 7.933594 5.035156 7.421875 C 5.457031 6.90625 5.902344 6.414062 6.371094 5.945312 C 6.839844 5.472656 7.332031 5.027344 7.847656 4.605469 C 8.359375 4.183594 8.894531 3.789062 9.445312 3.421875 C 10 3.050781 10.570312 2.710938 11.15625 2.394531 C 11.742188 2.082031 12.34375 1.800781 12.957031 1.542969 C 13.570312 1.289062 14.195312 1.066406 14.832031 0.875 C 15.46875 0.679688 16.113281 0.519531 16.761719 0.390625 C 17.414062 0.261719 18.070312 0.164062 18.734375 0.0976562 C 19.394531 0.03125 20.058594 0 20.722656 0 C 21.386719 0 22.050781 0.03125 22.710938 0.0976562 C 23.375 0.164062 24.03125 0.261719 24.683594 0.390625 C 25.335938 0.519531 25.976562 0.679688 26.613281 0.875 C 27.25 1.066406 27.875 1.289062 28.488281 1.542969 C 29.101562 1.800781 29.703125 2.082031 30.289062 2.394531 C 30.875 2.710938 31.445312 3.050781 32 3.421875 C 32.550781 3.789062 33.085938 4.183594 33.597656 4.605469 C 34.113281 5.027344 34.605469 5.472656 35.074219 5.945312 C 35.542969 6.414062 35.988281 6.90625 36.410156 7.421875 C 36.832031 7.933594 37.226562 8.46875 37.597656 9.019531 C 37.96875 9.574219 38.308594 10.140625 38.621094 10.726562 C 38.933594 11.3125 39.21875 11.914062 39.472656 12.527344 C 39.726562 13.144531 39.953125 13.769531 40.144531 14.402344 C 40.335938 15.039062 40.5 15.683594 40.628906 16.335938 C 40.757812 16.988281 40.855469 17.644531 40.921875 18.304688 C 40.984375 18.96875 41.019531 19.628906 41.019531 20.296875 Z M 41.019531 20.296875 " fill-opacity="1" fill-rule="nonzero"/></g><path fill="#dde2e1" d="M 16.707031 10.101562 C 16.625 9.90625 16.511719 9.726562 16.367188 9.570312 C 16.21875 9.417969 16.050781 9.292969 15.859375 9.195312 C 15.664062 9.101562 15.464844 9.046875 15.25 9.027344 C 15.035156 9.007812 14.828125 9.023438 14.621094 9.082031 L 10.746094 10.136719 C 10.363281 10.242188 10.050781 10.453125 9.808594 10.769531 C 9.570312 11.085938 9.449219 11.441406 9.449219 11.839844 C 9.449219 22.734375 18.28125 31.570312 29.179688 31.570312 C 29.574219 31.570312 29.933594 31.449219 30.246094 31.207031 C 30.5625 30.964844 30.773438 30.652344 30.878906 30.269531 L 31.933594 26.394531 C 31.992188 26.191406 32.011719 25.980469 31.988281 25.765625 C 31.96875 25.554688 31.914062 25.351562 31.820312 25.160156 C 31.726562 24.96875 31.601562 24.796875 31.445312 24.652344 C 31.289062 24.503906 31.113281 24.390625 30.914062 24.308594 L 26.6875 22.546875 C 26.328125 22.398438 25.960938 22.367188 25.582031 22.464844 C 25.203125 22.558594 24.890625 22.753906 24.644531 23.058594 L 22.867188 25.226562 C 21.316406 24.492188 19.929688 23.515625 18.714844 22.300781 C 17.5 21.085938 16.523438 19.703125 15.789062 18.152344 L 17.960938 16.375 C 18.261719 16.128906 18.460938 15.820312 18.554688 15.441406 C 18.648438 15.0625 18.621094 14.695312 18.472656 14.335938 L 16.707031 10.109375 Z M 16.707031 10.101562 " fill-opacity="1" fill-rule="nonzero"/><g fill="#e4279e" fill-opacity="1"><g transform="translate(53.7654, 23.820687)"><g><path d="M 6.0625 0.390625 C 4.300781 0.390625 2.96875 -0.0859375 2.0625 -1.046875 C 1.164062 -2.015625 0.71875 -3.4375 0.71875 -5.3125 C 0.71875 -6.382812 0.984375 -7.347656 1.515625 -8.203125 C 2.046875 -9.054688 2.78125 -9.71875 3.71875 -10.1875 C 4.664062 -10.664062 5.738281 -10.90625 6.9375 -10.90625 C 8.695312 -10.90625 10.03125 -10.421875 10.9375 -9.453125 C 11.84375 -8.492188 12.296875 -7.066406 12.296875 -5.171875 C 12.296875 -4.097656 12.03125 -3.140625 11.5 -2.296875 C 10.976562 -1.453125 10.242188 -0.789062 9.296875 -0.3125 C 8.347656 0.15625 7.269531 0.390625 6.0625 0.390625 Z M 6.734375 -2.0625 C 7.296875 -2.0625 7.828125 -2.160156 8.328125 -2.359375 C 8.429688 -2.648438 8.515625 -3.035156 8.578125 -3.515625 C 8.648438 -4.003906 8.6875 -4.503906 8.6875 -5.015625 C 8.6875 -6.109375 8.476562 -6.941406 8.0625 -7.515625 C 7.65625 -8.085938 7.054688 -8.375 6.265625 -8.375 C 5.847656 -8.375 5.3125 -8.3125 4.65625 -8.1875 C 4.4375 -7.851562 4.328125 -7 4.328125 -5.625 C 4.328125 -4.488281 4.535156 -3.609375 4.953125 -2.984375 C 5.367188 -2.367188 5.960938 -2.0625 6.734375 -2.0625 Z M 6.734375 -2.0625 "/></g></g></g><g fill="#e4279e" fill-opacity="1"><g transform="translate(66.7841, 23.820687)"><g><path d="M 3.5625 3.09375 C 2.3125 3.09375 1.3125 2.832031 0.5625 2.3125 L 1.609375 -0.390625 L 2.40625 -0.390625 C 3.101562 -0.0234375 4 0.15625 5.09375 0.15625 C 5.875 0.15625 6.425781 0.00390625 6.75 -0.296875 C 6.769531 -0.992188 6.625 -1.53125 6.3125 -1.90625 C 6 -2.28125 5.519531 -2.5 4.875 -2.5625 C 5.1875 -2.539062 4.414062 -2.59375 2.5625 -2.71875 L 1.453125 -2.78125 L 1.015625 -7.9375 C 1.003906 -8.3125 1.035156 -8.742188 1.109375 -9.234375 C 1.191406 -9.734375 1.300781 -10.21875 1.4375 -10.6875 L 5.84375 -10.6875 C 6.144531 -10.6875 6.34375 -10.703125 6.4375 -10.734375 C 6.53125 -10.773438 6.65625 -10.890625 6.8125 -11.078125 L 7.1875 -11.546875 L 8.75 -11.125 C 8.65625 -10.039062 8.515625 -8.84375 8.328125 -7.53125 L 3.59375 -7.53125 L 3.59375 -5.859375 L 4.171875 -5.828125 C 5.078125 -5.773438 5.828125 -5.695312 6.421875 -5.59375 C 7.023438 -5.5 7.539062 -5.316406 7.96875 -5.046875 C 8.925781 -4.472656 9.40625 -3.550781 9.40625 -2.28125 C 9.40625 -1.28125 9.148438 -0.367188 8.640625 0.453125 C 8.128906 1.273438 7.425781 1.921875 6.53125 2.390625 C 5.644531 2.859375 4.65625 3.09375 3.5625 3.09375 Z M 3.5625 3.09375 "/></g></g></g><g fill="#e4279e" fill-opacity="1"><g transform="translate(76.761795, 23.820687)"><g><path d="M 2.75 3.09375 C 2.164062 3.09375 1.601562 3.023438 1.0625 2.890625 C 0.53125 2.753906 0.0625 2.566406 -0.34375 2.328125 L 0.8125 -0.453125 L 1.6875 -0.453125 C 2.425781 -0.0976562 3.316406 0.078125 4.359375 0.078125 C 5.210938 0.078125 5.796875 -0.0664062 6.109375 -0.359375 C 6.117188 -1.078125 5.957031 -1.617188 5.625 -1.984375 C 5.289062 -2.347656 4.773438 -2.5625 4.078125 -2.625 L 2.75 -2.75 C 2.269531 -2.769531 1.910156 -2.796875 1.671875 -2.828125 C 1.773438 -3.804688 1.914062 -4.59375 2.09375 -5.1875 C 2.988281 -5.289062 3.582031 -5.367188 3.875 -5.421875 C 4.164062 -5.472656 4.410156 -5.546875 4.609375 -5.640625 C 4.710938 -6.035156 4.773438 -6.414062 4.796875 -6.78125 C 4.773438 -7.21875 4.632812 -7.519531 4.375 -7.6875 C 4.125 -7.863281 3.671875 -7.953125 3.015625 -7.953125 C 2.253906 -7.953125 1.4375 -7.851562 0.5625 -7.65625 L 0.578125 -8.5625 L 0.96875 -10.46875 C 1.925781 -10.757812 2.9375 -10.90625 4 -10.90625 C 5.1875 -10.90625 6.144531 -10.65625 6.875 -10.15625 C 7.613281 -9.664062 7.984375 -9.003906 7.984375 -8.171875 C 7.984375 -7.703125 7.878906 -7.234375 7.671875 -6.765625 C 7.460938 -6.304688 7.140625 -5.8125 6.703125 -5.28125 C 7.441406 -5.070312 7.984375 -4.734375 8.328125 -4.265625 C 8.671875 -3.796875 8.84375 -3.160156 8.84375 -2.359375 C 8.84375 -1.335938 8.570312 -0.410156 8.03125 0.421875 C 7.5 1.253906 6.765625 1.90625 5.828125 2.375 C 4.898438 2.851562 3.875 3.09375 2.75 3.09375 Z M 2.75 3.09375 "/></g></g></g><g fill="#e4279e" fill-opacity="1"><g transform="translate(85.765503, 23.820687)"><g><path d="M 1.75 -6.734375 L 6.59375 -7.390625 L 7.625 -7.390625 L 7.625 -4.765625 L 1.75 -4.765625 Z M 1.75 -6.734375 "/></g></g></g><g fill="#e4279e" fill-opacity="1"><g transform="translate(95.146923, 23.820687)"><g><path d="M 3.5625 3.09375 C 2.3125 3.09375 1.3125 2.832031 0.5625 2.3125 L 1.609375 -0.390625 L 2.40625 -0.390625 C 3.101562 -0.0234375 4 0.15625 5.09375 0.15625 C 5.875 0.15625 6.425781 0.00390625 6.75 -0.296875 C 6.769531 -0.992188 6.625 -1.53125 6.3125 -1.90625 C 6 -2.28125 5.519531 -2.5 4.875 -2.5625 C 5.1875 -2.539062 4.414062 -2.59375 2.5625 -2.71875 L 1.453125 -2.78125 L 1.015625 -7.9375 C 1.003906 -8.3125 1.035156 -8.742188 1.109375 -9.234375 C 1.191406 -9.734375 1.300781 -10.21875 1.4375 -10.6875 L 5.84375 -10.6875 C 6.144531 -10.6875 6.34375 -10.703125 6.4375 -10.734375 C 6.53125 -10.773438 6.65625 -10.890625 6.8125 -11.078125 L 7.1875 -11.546875 L 8.75 -11.125 C 8.65625 -10.039062 8.515625 -8.84375 8.328125 -7.53125 L 3.59375 -7.53125 L 3.59375 -5.859375 L 4.171875 -5.828125 C 5.078125 -5.773438 5.828125 -5.695312 6.421875 -5.59375 C 7.023438 -5.5 7.539062 -5.316406 7.96875 -5.046875 C 8.925781 -4.472656 9.40625 -3.550781 9.40625 -2.28125 C 9.40625 -1.28125 9.148438 -0.367188 8.640625 0.453125 C 8.128906 1.273438 7.425781 1.921875 6.53125 2.390625 C 5.644531 2.859375 4.65625 3.09375 3.5625 3.09375 Z M 3.5625 3.09375 "/></g></g></g><g fill="#e4279e" fill-opacity="1"><g transform="translate(105.124619, 23.820687)"><g><path d="M 2.75 3.09375 C 2.164062 3.09375 1.601562 3.023438 1.0625 2.890625 C 0.53125 2.753906 0.0625 2.566406 -0.34375 2.328125 L 0.8125 -0.453125 L 1.6875 -0.453125 C 2.425781 -0.0976562 3.316406 0.078125 4.359375 0.078125 C 5.210938 0.078125 5.796875 -0.0664062 6.109375 -0.359375 C 6.117188 -1.078125 5.957031 -1.617188 5.625 -1.984375 C 5.289062 -2.347656 4.773438 -2.5625 4.078125 -2.625 L 2.75 -2.75 C 2.269531 -2.769531 1.910156 -2.796875 1.671875 -2.828125 C 1.773438 -3.804688 1.914062 -4.59375 2.09375 -5.1875 C 2.988281 -5.289062 3.582031 -5.367188 3.875 -5.421875 C 4.164062 -5.472656 4.410156 -5.546875 4.609375 -5.640625 C 4.710938 -6.035156 4.773438 -6.414062 4.796875 -6.78125 C 4.773438 -7.21875 4.632812 -7.519531 4.375 -7.6875 C 4.125 -7.863281 3.671875 -7.953125 3.015625 -7.953125 C 2.253906 -7.953125 1.4375 -7.851562 0.5625 -7.65625 L 0.578125 -8.5625 L 0.96875 -10.46875 C 1.925781 -10.757812 2.9375 -10.90625 4 -10.90625 C 5.1875 -10.90625 6.144531 -10.65625 6.875 -10.15625 C 7.613281 -9.664062 7.984375 -9.003906 7.984375 -8.171875 C 7.984375 -7.703125 7.878906 -7.234375 7.671875 -6.765625 C 7.460938 -6.304688 7.140625 -5.8125 6.703125 -5.28125 C 7.441406 -5.070312 7.984375 -4.734375 8.328125 -4.265625 C 8.671875 -3.796875 8.84375 -3.160156 8.84375 -2.359375 C 8.84375 -1.335938 8.570312 -0.410156 8.03125 0.421875 C 7.5 1.253906 6.765625 1.90625 5.828125 2.375 C 4.898438 2.851562 3.875 3.09375 2.75 3.09375 Z M 2.75 3.09375 "/></g></g></g><g fill="#e4279e" fill-opacity="1"><g transform="translate(114.525904, 23.820687)"><g><path d="M 6.0625 0.390625 C 4.300781 0.390625 2.96875 -0.0859375 2.0625 -1.046875 C 1.164062 -2.015625 0.71875 -3.4375 0.71875 -5.3125 C 0.71875 -6.382812 0.984375 -7.347656 1.515625 -8.203125 C 2.046875 -9.054688 2.78125 -9.71875 3.71875 -10.1875 C 4.664062 -10.664062 5.738281 -10.90625 6.9375 -10.90625 C 8.695312 -10.90625 10.03125 -10.421875 10.9375 -9.453125 C 11.84375 -8.492188 12.296875 -7.066406 12.296875 -5.171875 C 12.296875 -4.097656 12.03125 -3.140625 11.5 -2.296875 C 10.976562 -1.453125 10.242188 -0.789062 9.296875 -0.3125 C 8.347656 0.15625 7.269531 0.390625 6.0625 0.390625 Z M 6.734375 -2.0625 C 7.296875 -2.0625 7.828125 -2.160156 8.328125 -2.359375 C 8.429688 -2.648438 8.515625 -3.035156 8.578125 -3.515625 C 8.648438 -4.003906 8.6875 -4.503906 8.6875 -5.015625 C 8.6875 -6.109375 8.476562 -6.941406 8.0625 -7.515625 C 7.65625 -8.085938 7.054688 -8.375 6.265625 -8.375 C 5.847656 -8.375 5.3125 -8.3125 4.65625 -8.1875 C 4.4375 -7.851562 4.328125 -7 4.328125 -5.625 C 4.328125 -4.488281 4.535156 -3.609375 4.953125 -2.984375 C 5.367188 -2.367188 5.960938 -2.0625 6.734375 -2.0625 Z M 6.734375 -2.0625 "/></g></g></g><g fill="#e4279e" fill-opacity="1"><g transform="translate(127.544604, 23.820687)"><g><path d="M 0.375 -2.328125 C 0.59375 -2.515625 0.914062 -2.773438 1.34375 -3.109375 C 1.78125 -3.453125 2.140625 -3.726562 2.421875 -3.9375 C 3.671875 -4.882812 4.453125 -5.5 4.765625 -5.78125 C 4.835938 -6.070312 4.875 -6.351562 4.875 -6.625 C 4.875 -7.082031 4.742188 -7.414062 4.484375 -7.625 C 4.222656 -7.84375 3.816406 -7.953125 3.265625 -7.953125 C 2.554688 -7.953125 1.734375 -7.882812 0.796875 -7.75 L 0.703125 -8.53125 L 0.9375 -10.53125 C 1.925781 -10.78125 2.929688 -10.90625 3.953125 -10.90625 C 5.160156 -10.90625 6.117188 -10.640625 6.828125 -10.109375 C 7.535156 -9.585938 7.890625 -8.863281 7.890625 -7.9375 C 7.890625 -6.976562 7.644531 -6.132812 7.15625 -5.40625 C 6.664062 -4.675781 5.859375 -3.867188 4.734375 -2.984375 L 3.890625 -2.359375 L 7.21875 -3.125 L 8.03125 -3.125 L 7.8125 0 L 0.4375 0 Z M 0.375 -2.328125 "/></g></g></g><g fill="#e4279e" fill-opacity="1"><g transform="translate(136.349649, 23.820687)"><g><path d="M 0.375 -2.328125 C 0.59375 -2.515625 0.914062 -2.773438 1.34375 -3.109375 C 1.78125 -3.453125 2.140625 -3.726562 2.421875 -3.9375 C 3.671875 -4.882812 4.453125 -5.5 4.765625 -5.78125 C 4.835938 -6.070312 4.875 -6.351562 4.875 -6.625 C 4.875 -7.082031 4.742188 -7.414062 4.484375 -7.625 C 4.222656 -7.84375 3.816406 -7.953125 3.265625 -7.953125 C 2.554688 -7.953125 1.734375 -7.882812 0.796875 -7.75 L 0.703125 -8.53125 L 0.9375 -10.53125 C 1.925781 -10.78125 2.929688 -10.90625 3.953125 -10.90625 C 5.160156 -10.90625 6.117188 -10.640625 6.828125 -10.109375 C 7.535156 -9.585938 7.890625 -8.863281 7.890625 -7.9375 C 7.890625 -6.976562 7.644531 -6.132812 7.15625 -5.40625 C 6.664062 -4.675781 5.859375 -3.867188 4.734375 -2.984375 L 3.890625 -2.359375 L 7.21875 -3.125 L 8.03125 -3.125 L 7.8125 0 L 0.4375 0 Z M 0.375 -2.328125 "/></g></g></g><g fill="#e4279e" fill-opacity="1"><g transform="translate(144.955905, 23.820687)"><g><path d="M 6.0625 0.390625 C 4.300781 0.390625 2.96875 -0.0859375 2.0625 -1.046875 C 1.164062 -2.015625 0.71875 -3.4375 0.71875 -5.3125 C 0.71875 -6.382812 0.984375 -7.347656 1.515625 -8.203125 C 2.046875 -9.054688 2.78125 -9.71875 3.71875 -10.1875 C 4.664062 -10.664062 5.738281 -10.90625 6.9375 -10.90625 C 8.695312 -10.90625 10.03125 -10.421875 10.9375 -9.453125 C 11.84375 -8.492188 12.296875 -7.066406 12.296875 -5.171875 C 12.296875 -4.097656 12.03125 -3.140625 11.5 -2.296875 C 10.976562 -1.453125 10.242188 -0.789062 9.296875 -0.3125 C 8.347656 0.15625 7.269531 0.390625 6.0625 0.390625 Z M 6.734375 -2.0625 C 7.296875 -2.0625 7.828125 -2.160156 8.328125 -2.359375 C 8.429688 -2.648438 8.515625 -3.035156 8.578125 -3.515625 C 8.648438 -4.003906 8.6875 -4.503906 8.6875 -5.015625 C 8.6875 -6.109375 8.476562 -6.941406 8.0625 -7.515625 C 7.65625 -8.085938 7.054688 -8.375 6.265625 -8.375 C 5.847656 -8.375 5.3125 -8.3125 4.65625 -8.1875 C 4.4375 -7.851562 4.328125 -7 4.328125 -5.625 C 4.328125 -4.488281 4.535156 -3.609375 4.953125 -2.984375 C 5.367188 -2.367188 5.960938 -2.0625 6.734375 -2.0625 Z M 6.734375 -2.0625 "/></g></g></g><g fill="#e4279e" fill-opacity="1"><g transform="translate(157.974605, 23.820687)"><g><path d="M 2.484375 2.34375 L 6.375 -2.171875 L 4.609375 -1.765625 C 3.441406 -1.910156 2.503906 -2.34375 1.796875 -3.0625 C 1.097656 -3.78125 0.75 -4.675781 0.75 -5.75 C 0.75 -6.707031 0.96875 -7.582031 1.40625 -8.375 C 1.84375 -9.164062 2.4375 -9.785156 3.1875 -10.234375 C 3.945312 -10.679688 4.789062 -10.90625 5.71875 -10.90625 C 6.675781 -10.90625 7.507812 -10.710938 8.21875 -10.328125 C 8.9375 -9.953125 9.488281 -9.410156 9.875 -8.703125 C 10.269531 -8.003906 10.46875 -7.179688 10.46875 -6.234375 C 10.46875 -5.429688 10.363281 -4.679688 10.15625 -3.984375 C 9.945312 -3.285156 9.5625 -2.421875 9 -1.390625 C 8.75 -0.910156 8.425781 -0.378906 8.03125 0.203125 C 7.632812 0.796875 6.992188 1.6875 6.109375 2.875 L 2.65625 3.09375 Z M 6.15625 -4.25 C 6.570312 -4.25 6.929688 -4.273438 7.234375 -4.328125 C 7.242188 -4.460938 7.25 -4.703125 7.25 -5.046875 C 7.25 -6.078125 7.070312 -6.878906 6.71875 -7.453125 C 6.363281 -8.023438 5.859375 -8.3125 5.203125 -8.3125 C 4.742188 -8.3125 4.347656 -8.269531 4.015625 -8.1875 C 4.003906 -8.070312 4 -7.84375 4 -7.5 C 4 -6.382812 4.171875 -5.5625 4.515625 -5.03125 C 4.867188 -4.507812 5.414062 -4.25 6.15625 -4.25 Z M 6.15625 -4.25 "/></g></g></g><g fill="#e4279e" fill-opacity="1"><g transform="translate(49.601761, 70.906748)"><g><path d="M 5.75 4.046875 C 5.050781 3.546875 4.316406 2.828125 3.546875 1.890625 C 2.785156 0.960938 2.117188 -0.179688 1.546875 -1.546875 C 0.984375 -2.910156 0.703125 -4.394531 0.703125 -6 C 0.703125 -7.601562 0.984375 -9.0625 1.546875 -10.375 C 2.117188 -11.6875 2.785156 -12.773438 3.546875 -13.640625 C 4.316406 -14.515625 5.050781 -15.175781 5.75 -15.625 L 5.75 -13.671875 C 5.070312 -12.734375 4.492188 -11.613281 4.015625 -10.3125 C 3.546875 -9.019531 3.3125 -7.582031 3.3125 -6 C 3.3125 -4.414062 3.550781 -2.9375 4.03125 -1.5625 C 4.507812 -0.195312 5.082031 0.976562 5.75 1.96875 Z M 5.75 4.046875 "/></g></g></g><g fill="#e4279e" fill-opacity="1"><g transform="translate(56.044552, 70.906748)"><g><path d="M 7.03125 0.28125 C 4.832031 0.28125 3.191406 -0.273438 2.109375 -1.390625 C 1.035156 -2.503906 0.5 -4.191406 0.5 -6.453125 C 0.5 -7.929688 0.769531 -9.207031 1.3125 -10.28125 C 1.851562 -11.363281 2.625 -12.195312 3.625 -12.78125 C 4.632812 -13.363281 5.835938 -13.65625 7.234375 -13.65625 C 11.660156 -13.65625 13.875 -11.394531 13.875 -6.875 C 13.875 -5.394531 13.601562 -4.117188 13.0625 -3.046875 C 12.519531 -1.972656 11.734375 -1.148438 10.703125 -0.578125 C 9.671875 -0.00390625 8.445312 0.28125 7.03125 0.28125 Z M 7.453125 -2.46875 C 8.210938 -2.46875 8.9375 -2.660156 9.625 -3.046875 C 9.769531 -3.453125 9.878906 -3.960938 9.953125 -4.578125 C 10.035156 -5.191406 10.078125 -5.800781 10.078125 -6.40625 C 10.078125 -7.875 9.800781 -8.984375 9.25 -9.734375 C 8.695312 -10.492188 7.894531 -10.875 6.84375 -10.875 C 6.082031 -10.875 5.351562 -10.734375 4.65625 -10.453125 C 4.507812 -10.203125 4.394531 -9.785156 4.3125 -9.203125 C 4.226562 -8.628906 4.1875 -7.972656 4.1875 -7.234375 C 4.1875 -5.691406 4.460938 -4.507812 5.015625 -3.6875 C 5.578125 -2.875 6.390625 -2.46875 7.453125 -2.46875 Z M 7.453125 -2.46875 "/></g></g></g><g fill="#e4279e" fill-opacity="1"><g transform="translate(71.349116, 70.906748)"><g><path d="M 4.09375 0.28125 C 3.03125 0.28125 2.238281 -0.03125 1.71875 -0.65625 C 1.207031 -1.289062 0.953125 -2.242188 0.953125 -3.515625 L 0.953125 -7.078125 C 0.953125 -7.367188 0.925781 -7.554688 0.875 -7.640625 C 0.832031 -7.722656 0.71875 -7.820312 0.53125 -7.9375 L -0.359375 -8.40625 L -0.265625 -9.890625 C -0.078125 -9.921875 0.0546875 -9.953125 0.140625 -9.984375 C 0.285156 -10.003906 0.804688 -10.09375 1.703125 -10.25 C 2.597656 -10.414062 3.34375 -10.507812 3.9375 -10.53125 C 4.082031 -10.195312 4.191406 -9.8125 4.265625 -9.375 L 4.265625 -4.375 C 4.265625 -3.789062 4.28125 -3.378906 4.3125 -3.140625 C 4.351562 -2.898438 4.460938 -2.71875 4.640625 -2.59375 C 4.816406 -2.46875 5.125 -2.40625 5.5625 -2.40625 C 6.195312 -2.40625 6.8125 -2.519531 7.40625 -2.75 L 7.40625 -7.078125 C 7.40625 -7.367188 7.382812 -7.554688 7.34375 -7.640625 C 7.3125 -7.722656 7.207031 -7.820312 7.03125 -7.9375 L 6.15625 -8.40625 L 6.234375 -9.890625 C 7.304688 -10.097656 8.144531 -10.253906 8.75 -10.359375 C 9.351562 -10.460938 9.910156 -10.519531 10.421875 -10.53125 C 10.566406 -10.195312 10.675781 -9.8125 10.75 -9.375 L 10.75 -2.859375 C 10.75 -2.617188 10.769531 -2.453125 10.8125 -2.359375 C 10.851562 -2.265625 10.945312 -2.175781 11.09375 -2.09375 L 11.890625 -1.625 L 11.828125 -0.390625 C 11.253906 -0.242188 10.597656 -0.113281 9.859375 0 C 9.117188 0.101562 8.429688 0.171875 7.796875 0.203125 C 7.742188 0.0351562 7.679688 -0.160156 7.609375 -0.390625 C 7.597656 -0.503906 7.566406 -0.632812 7.515625 -0.78125 L 7.453125 -0.78125 C 6.910156 -0.457031 6.335938 -0.195312 5.734375 0 C 5.128906 0.1875 4.582031 0.28125 4.09375 0.28125 Z M 4.09375 0.28125 "/></g></g></g><g fill="#e4279e" fill-opacity="1"><g transform="translate(83.990252, 70.906748)"><g><path d="M 4.40625 0.265625 C 3.238281 0.265625 2.378906 -0.0195312 1.828125 -0.59375 C 1.273438 -1.175781 1 -2.054688 1 -3.234375 L 1 -8.0625 L -0.390625 -8.0625 L -0.390625 -9.515625 L 3.1875 -12.78125 L 4.328125 -12.640625 L 4.328125 -10.390625 L 7.671875 -10.390625 L 7.671875 -8.046875 L 4.328125 -8.046875 L 4.328125 -3.953125 C 4.328125 -3.316406 4.414062 -2.890625 4.59375 -2.671875 C 4.78125 -2.460938 5.128906 -2.359375 5.640625 -2.359375 C 6.078125 -2.359375 6.6875 -2.421875 7.46875 -2.546875 L 7.71875 -0.515625 C 7.238281 -0.285156 6.703125 -0.0976562 6.109375 0.046875 C 5.523438 0.191406 4.957031 0.265625 4.40625 0.265625 Z M 4.40625 0.265625 "/></g></g></g><g fill="#e4279e" fill-opacity="1"><g transform="translate(92.020075, 70.906748)"><g><path d="M 0.5 -1.828125 L 1.890625 -2.25 L 1.890625 -11.765625 C 1.890625 -12.054688 1.863281 -12.242188 1.8125 -12.328125 C 1.769531 -12.421875 1.65625 -12.519531 1.46875 -12.625 L 0.59375 -13.078125 L 0.703125 -14.59375 C 0.960938 -14.644531 1.164062 -14.675781 1.3125 -14.6875 C 3.0625 -15.007812 4.28125 -15.179688 4.96875 -15.203125 C 5.101562 -14.898438 5.191406 -14.554688 5.234375 -14.171875 L 5.234375 -2.90625 C 5.234375 -2.625 5.25 -2.4375 5.28125 -2.34375 C 5.320312 -2.25 5.4375 -2.148438 5.625 -2.046875 L 6.59375 -1.484375 L 6.515625 0 L 0.5625 0 Z M 0.5 -1.828125 "/></g></g></g><g fill="#e4279e" fill-opacity="1"><g transform="translate(98.917025, 70.906748)"><g><path d="M 5.3125 0.265625 C 3.625 0.265625 2.363281 -0.164062 1.53125 -1.03125 C 0.707031 -1.894531 0.296875 -3.210938 0.296875 -4.984375 C 0.296875 -6.128906 0.503906 -7.125 0.921875 -7.96875 C 1.335938 -8.8125 1.9375 -9.457031 2.71875 -9.90625 C 3.5 -10.363281 4.421875 -10.59375 5.484375 -10.59375 C 8.921875 -10.59375 10.640625 -8.816406 10.640625 -5.265625 C 10.640625 -3.523438 10.171875 -2.164062 9.234375 -1.1875 C 8.296875 -0.21875 6.988281 0.265625 5.3125 0.265625 Z M 5.625 -2.0625 C 5.882812 -2.0625 6.113281 -2.082031 6.3125 -2.125 C 6.519531 -2.175781 6.734375 -2.253906 6.953125 -2.359375 C 7.035156 -2.671875 7.101562 -3.0625 7.15625 -3.53125 C 7.207031 -4.007812 7.234375 -4.46875 7.234375 -4.90625 C 7.234375 -5.976562 7.0625 -6.789062 6.71875 -7.34375 C 6.382812 -7.90625 5.890625 -8.1875 5.234375 -8.1875 C 4.796875 -8.1875 4.347656 -8.128906 3.890625 -8.015625 C 3.796875 -7.816406 3.722656 -7.492188 3.671875 -7.046875 C 3.617188 -6.597656 3.59375 -6.09375 3.59375 -5.53125 C 3.59375 -4.414062 3.769531 -3.554688 4.125 -2.953125 C 4.476562 -2.359375 4.976562 -2.0625 5.625 -2.0625 Z M 5.625 -2.0625 "/></g></g></g><g fill="#e4279e" fill-opacity="1"><g transform="translate(110.643894, 70.906748)"><g><path d="M 5.3125 0.265625 C 3.625 0.265625 2.363281 -0.164062 1.53125 -1.03125 C 0.707031 -1.894531 0.296875 -3.210938 0.296875 -4.984375 C 0.296875 -6.128906 0.503906 -7.125 0.921875 -7.96875 C 1.335938 -8.8125 1.9375 -9.457031 2.71875 -9.90625 C 3.5 -10.363281 4.421875 -10.59375 5.484375 -10.59375 C 8.921875 -10.59375 10.640625 -8.816406 10.640625 -5.265625 C 10.640625 -3.523438 10.171875 -2.164062 9.234375 -1.1875 C 8.296875 -0.21875 6.988281 0.265625 5.3125 0.265625 Z M 5.625 -2.0625 C 5.882812 -2.0625 6.113281 -2.082031 6.3125 -2.125 C 6.519531 -2.175781 6.734375 -2.253906 6.953125 -2.359375 C 7.035156 -2.671875 7.101562 -3.0625 7.15625 -3.53125 C 7.207031 -4.007812 7.234375 -4.46875 7.234375 -4.90625 C 7.234375 -5.976562 7.0625 -6.789062 6.71875 -7.34375 C 6.382812 -7.90625 5.890625 -8.1875 5.234375 -8.1875 C 4.796875 -8.1875 4.347656 -8.128906 3.890625 -8.015625 C 3.796875 -7.816406 3.722656 -7.492188 3.671875 -7.046875 C 3.617188 -6.597656 3.59375 -6.09375 3.59375 -5.53125 C 3.59375 -4.414062 3.769531 -3.554688 4.125 -2.953125 C 4.476562 -2.359375 4.976562 -2.0625 5.625 -2.0625 Z M 5.625 -2.0625 "/></g></g></g><g fill="#e4279e" fill-opacity="1"><g transform="translate(121.277437, 70.906748)"><g><path d="M 0.515625 -1.890625 L 1.75 -2.25 L 1.75 -11.765625 C 1.75 -12.054688 1.726562 -12.242188 1.6875 -12.328125 C 1.644531 -12.421875 1.539062 -12.519531 1.375 -12.625 L 0.5 -13.078125 L 0.5625 -14.59375 L 1.171875 -14.6875 C 2.921875 -15.007812 4.144531 -15.179688 4.84375 -15.203125 C 4.96875 -14.890625 5.054688 -14.546875 5.109375 -14.171875 L 5.109375 -6.078125 L 7.3125 -8.234375 C 7.375 -8.296875 7.40625 -8.367188 7.40625 -8.453125 C 7.40625 -8.515625 7.390625 -8.566406 7.359375 -8.609375 L 6.796875 -9.296875 L 7.015625 -10.390625 L 11.421875 -10.390625 C 11.546875 -9.953125 11.628906 -9.484375 11.671875 -8.984375 L 8.375 -6.15625 L 12.203125 -0.875 L 12.203125 0 L 8.703125 0 L 5.109375 -5.171875 L 5.109375 -2.90625 C 5.109375 -2.625 5.128906 -2.4375 5.171875 -2.34375 C 5.210938 -2.25 5.316406 -2.148438 5.484375 -2.046875 L 6.453125 -1.484375 L 6.375 0 L 0.609375 0 Z M 0.515625 -1.890625 "/></g></g></g><g fill="#e4279e" fill-opacity="1"><g transform="translate(133.591058, 70.906748)"><g><path d="M 0.734375 -3.3125 L 6.125 -3.3125 L 6.125 -4.703125 C 6.125 -5.066406 6.117188 -5.40625 6.109375 -5.71875 C 6.078125 -6.195312 6.03125 -6.5625 5.96875 -6.8125 C 5.914062 -7.0625 5.789062 -7.265625 5.59375 -7.421875 C 5.40625 -7.578125 5.101562 -7.65625 4.6875 -7.65625 L 2.28125 -7.65625 C 2.070312 -7.65625 1.601562 -7.765625 0.875 -7.984375 C 0.96875 -9.203125 1.144531 -10.359375 1.40625 -11.453125 L 2.765625 -11.6875 L 3.125 -11.28125 C 3.238281 -11.144531 3.34375 -11.054688 3.4375 -11.015625 C 3.539062 -10.984375 3.726562 -10.96875 4 -10.96875 L 5.34375 -10.96875 C 6.21875 -10.96875 6.890625 -10.84375 7.359375 -10.59375 C 7.828125 -10.34375 8.160156 -9.925781 8.359375 -9.34375 C 8.566406 -8.757812 8.671875 -7.925781 8.671875 -6.84375 C 8.671875 -6 8.613281 -4.820312 8.5 -3.3125 L 9.890625 -3.3125 L 9.71875 0 L 0.5625 0 Z M 0.734375 -3.3125 "/></g></g></g><g fill="#e4279e" fill-opacity="1"><g transform="translate(143.847014, 70.906748)"><g><path d="M 0.703125 1.96875 C 1.359375 0.976562 1.925781 -0.195312 2.40625 -1.5625 C 2.882812 -2.9375 3.125 -4.414062 3.125 -6 C 3.125 -7.582031 2.882812 -9.019531 2.40625 -10.3125 C 1.9375 -11.613281 1.367188 -12.734375 0.703125 -13.671875 L 0.703125 -15.625 C 1.390625 -15.175781 2.113281 -14.515625 2.875 -13.640625 C 3.644531 -12.773438 4.316406 -11.6875 4.890625 -10.375 C 5.460938 -9.0625 5.75 -7.601562 5.75 -6 C 5.75 -4.394531 5.460938 -2.910156 4.890625 -1.546875 C 4.316406 -0.179688 3.644531 0.960938 2.875 1.890625 C 2.113281 2.828125 1.390625 3.546875 0.703125 4.046875 Z M 0.703125 1.96875 "/></g></g></g><g fill="#e4279e" fill-opacity="1"><g transform="translate(150.286802, 70.906748)"><g/></g></g><g fill="#e4279e" fill-opacity="1"><g transform="translate(154.381231, 70.906748)"><g><path d="M 8.796875 0.234375 C 8.796875 -2.835938 8.78125 -4.882812 8.75 -5.90625 C 8.71875 -6.445312 8.675781 -6.832031 8.625 -7.0625 C 8.570312 -7.289062 8.46875 -7.445312 8.3125 -7.53125 C 8.164062 -7.613281 7.910156 -7.65625 7.546875 -7.65625 L 4.765625 -7.65625 C 5.253906 -5.101562 5.5 -3.601562 5.5 -3.15625 C 5.5 -2.945312 5.46875 -2.457031 5.40625 -1.6875 L 5.203125 0 L 0.703125 0 L 0.875 -3.3125 L 2.9375 -3.3125 C 2.6875 -4.425781 2.296875 -5.878906 1.765625 -7.671875 C 1.648438 -7.703125 1.257812 -7.804688 0.59375 -7.984375 C 0.6875 -9.203125 0.867188 -10.359375 1.140625 -11.453125 L 2.484375 -11.6875 L 2.84375 -11.28125 C 2.957031 -11.144531 3.0625 -11.054688 3.15625 -11.015625 C 3.257812 -10.984375 3.445312 -10.96875 3.71875 -10.96875 L 8.28125 -10.96875 C 9.101562 -10.96875 9.742188 -10.832031 10.203125 -10.5625 C 10.660156 -10.289062 10.984375 -9.847656 11.171875 -9.234375 C 11.367188 -8.617188 11.46875 -7.757812 11.46875 -6.65625 C 11.46875 -4.164062 11.394531 -2.003906 11.25 -0.171875 L 9.59375 0.234375 Z M 8.796875 0.234375 "/></g></g></g><g fill="#e4279e" fill-opacity="1"><g transform="translate(166.843409, 70.906748)"><g><path d="M 1.265625 -3.578125 L 1.96875 -6.3125 C 2.0625 -6.601562 2.109375 -6.851562 2.109375 -7.0625 C 2.109375 -7.175781 2.0625 -7.28125 1.96875 -7.375 C 1.882812 -7.476562 1.710938 -7.617188 1.453125 -7.796875 L 0.203125 -8.625 C 0.515625 -9.539062 0.941406 -10.484375 1.484375 -11.453125 L 1.921875 -11.59375 C 2.085938 -11.507812 2.207031 -11.441406 2.28125 -11.390625 C 2.738281 -11.160156 3.117188 -10.953125 3.421875 -10.765625 C 4.078125 -10.367188 4.535156 -9.988281 4.796875 -9.625 C 5.066406 -9.257812 5.203125 -8.820312 5.203125 -8.3125 C 5.203125 -7.789062 5.097656 -7.234375 4.890625 -6.640625 C 4.617188 -5.765625 4.285156 -4.835938 3.890625 -3.859375 L 1.828125 -3.359375 Z M 1.265625 -3.578125 "/></g></g></g><g fill="#e4279e" fill-opacity="1"><g transform="translate(173.124252, 70.906748)"><g><path d="M 2.75 0.234375 C 2.707031 -0.015625 2.613281 -0.753906 2.46875 -1.984375 C 2.21875 -4.234375 2.09375 -5.894531 2.09375 -6.96875 L 2.09375 -7.546875 C 1.269531 -7.679688 0.675781 -7.828125 0.3125 -7.984375 C 0.34375 -9.222656 0.53125 -10.378906 0.875 -11.453125 L 2.21875 -11.6875 L 2.578125 -11.28125 C 2.703125 -11.144531 2.8125 -11.054688 2.90625 -11.015625 C 3.007812 -10.984375 3.191406 -10.96875 3.453125 -10.96875 L 3.671875 -10.96875 C 4.285156 -10.96875 5.222656 -11.003906 6.484375 -11.078125 L 7.15625 -11.109375 C 7.15625 -10.910156 7.101562 -10.429688 7 -9.671875 C 6.894531 -8.910156 6.78125 -8.238281 6.65625 -7.65625 C 6.300781 -7.601562 5.765625 -7.550781 5.046875 -7.5 L 4.515625 -7.453125 C 4.535156 -7.109375 4.601562 -6.675781 4.71875 -6.15625 C 4.832031 -5.644531 4.898438 -5.316406 4.921875 -5.171875 C 4.953125 -5.023438 5.035156 -4.609375 5.171875 -3.921875 C 5.316406 -3.242188 5.425781 -2.59375 5.5 -1.96875 C 5.519531 -1.832031 5.53125 -1.632812 5.53125 -1.375 L 5.5 -0.234375 C 5.375 -0.171875 5.109375 -0.09375 4.703125 0 C 4.296875 0.09375 3.851562 0.171875 3.375 0.234375 Z M 2.75 0.234375 "/></g></g></g><g fill="#e4279e" fill-opacity="1"><g transform="translate(180.537936, 70.906748)"><g><path d="M 0.203125 0.359375 C 0.222656 -0.859375 0.269531 -2.066406 0.34375 -3.265625 L 3.859375 -4.015625 L 3.65625 -5.5 C 3.570312 -6.039062 3.5 -6.414062 3.4375 -6.625 C 3.382812 -6.84375 3.300781 -7.003906 3.1875 -7.109375 C 3.070312 -7.222656 2.867188 -7.351562 2.578125 -7.5 L 0.890625 -8.28125 C 1.179688 -9.375 1.515625 -10.40625 1.890625 -11.375 L 2.40625 -11.53125 C 3.445312 -11.132812 4.175781 -10.828125 4.59375 -10.609375 C 5 -10.398438 5.3125 -10.175781 5.53125 -9.9375 C 5.75 -9.707031 5.910156 -9.40625 6.015625 -9.03125 C 6.128906 -8.65625 6.210938 -8.125 6.265625 -7.4375 C 6.378906 -6.125 6.488281 -3.765625 6.59375 -0.359375 L 4.96875 0.21875 L 4.40625 0.21875 C 4.300781 -0.539062 4.226562 -1.070312 4.1875 -1.375 C 3.3125 -0.84375 2.210938 -0.265625 0.890625 0.359375 Z M 0.203125 0.359375 "/></g></g></g><g fill="#e4279e" fill-opacity="1"><g transform="translate(187.792629, 70.906748)"><g/></g></g><g fill="#e4279e" fill-opacity="1"><g transform="translate(191.887059, 70.906748)"><g><path d="M 1.265625 -3.578125 L 1.96875 -6.3125 C 2.0625 -6.601562 2.109375 -6.851562 2.109375 -7.0625 C 2.109375 -7.175781 2.0625 -7.28125 1.96875 -7.375 C 1.882812 -7.476562 1.710938 -7.617188 1.453125 -7.796875 L 0.203125 -8.625 C 0.515625 -9.539062 0.941406 -10.484375 1.484375 -11.453125 L 1.921875 -11.59375 C 2.085938 -11.507812 2.207031 -11.441406 2.28125 -11.390625 C 2.738281 -11.160156 3.117188 -10.953125 3.421875 -10.765625 C 4.078125 -10.367188 4.535156 -9.988281 4.796875 -9.625 C 5.066406 -9.257812 5.203125 -8.820312 5.203125 -8.3125 C 5.203125 -7.789062 5.097656 -7.234375 4.890625 -6.640625 C 4.617188 -5.765625 4.285156 -4.835938 3.890625 -3.859375 L 1.828125 -3.359375 Z M 1.265625 -3.578125 "/></g></g></g><g fill="#e4279e" fill-opacity="1"><g transform="translate(198.028743, 70.906748)"><g><path d="M 6.15625 0.234375 C 6.15625 -0.398438 6.148438 -0.941406 6.140625 -1.390625 C 6.140625 -3.597656 6.117188 -5.128906 6.078125 -5.984375 C 6.066406 -6.628906 5.960938 -7.066406 5.765625 -7.296875 C 5.566406 -7.535156 5.210938 -7.65625 4.703125 -7.65625 L 1.90625 -7.65625 C 1.695312 -7.65625 1.226562 -7.765625 0.5 -7.984375 C 0.59375 -9.203125 0.769531 -10.359375 1.03125 -11.453125 L 2.390625 -11.6875 L 2.75 -11.28125 C 2.863281 -11.144531 2.96875 -11.054688 3.0625 -11.015625 C 3.164062 -10.984375 3.351562 -10.96875 3.625 -10.96875 L 5.328125 -10.96875 C 6.242188 -10.96875 6.945312 -10.84375 7.4375 -10.59375 C 7.9375 -10.351562 8.285156 -9.9375 8.484375 -9.34375 C 8.691406 -8.75 8.804688 -7.898438 8.828125 -6.796875 C 8.828125 -5.859375 8.800781 -4.738281 8.75 -3.4375 C 8.695312 -2.132812 8.628906 -1.039062 8.546875 -0.15625 L 7.015625 0.234375 Z M 6.15625 0.234375 "/></g></g></g><g fill="#e4279e" fill-opacity="1"><g transform="translate(207.847425, 70.906748)"><g><path d="M 2.6875 -5.703125 C 2.6875 -6.234375 2.671875 -6.585938 2.640625 -6.765625 C 2.617188 -6.941406 2.5625 -7.078125 2.46875 -7.171875 C 2.375 -7.265625 2.175781 -7.390625 1.875 -7.546875 L 0.3125 -8.28125 C 0.539062 -9.539062 0.800781 -10.550781 1.09375 -11.3125 L 1.671875 -11.546875 C 2.765625 -11.117188 3.546875 -10.773438 4.015625 -10.515625 C 4.566406 -10.222656 4.945312 -9.847656 5.15625 -9.390625 C 5.375 -8.929688 5.484375 -8.28125 5.484375 -7.4375 C 5.484375 -6.425781 5.398438 -4 5.234375 -0.15625 L 3.453125 0.265625 L 2.6875 0.265625 Z M 2.6875 -5.703125 "/></g></g></g><g fill="#e4279e" fill-opacity="1"><g transform="translate(214.287213, 70.906748)"><g><path d="M 3.859375 -5.75 L 4 -0.203125 L 1.890625 0.140625 L 0.96875 0.140625 L 0.96875 -1 C 1.082031 -3.0625 1.25 -4.898438 1.46875 -6.515625 C 1.519531 -6.847656 1.546875 -7.117188 1.546875 -7.328125 C 1.546875 -7.503906 1.519531 -7.648438 1.46875 -7.765625 C 1.414062 -7.890625 1.316406 -8.050781 1.171875 -8.25 L 0.75 -8.828125 C 1.207031 -10.003906 1.59375 -10.84375 1.90625 -11.34375 L 2.71875 -11.46875 L 4.265625 -9.84375 L 8.25 -5.703125 C 8.507812 -6.785156 8.640625 -7.414062 8.640625 -7.59375 C 8.640625 -7.695312 8.613281 -7.78125 8.5625 -7.84375 C 8.507812 -7.914062 8.40625 -8.003906 8.25 -8.109375 L 6.953125 -8.96875 C 6.960938 -9.113281 7.140625 -9.503906 7.484375 -10.140625 C 7.835938 -10.773438 8.101562 -11.21875 8.28125 -11.46875 L 8.859375 -11.46875 C 8.984375 -11.414062 9.3125 -11.238281 9.84375 -10.9375 C 10.40625 -10.613281 10.8125 -10.265625 11.0625 -9.890625 C 11.320312 -9.515625 11.453125 -9.082031 11.453125 -8.59375 C 11.453125 -7.863281 10.941406 -6.316406 9.921875 -3.953125 L 11.25 -2.609375 C 10.914062 -1.609375 10.546875 -0.664062 10.140625 0.21875 L 9.375 0.21875 Z M 3.859375 -5.75 "/></g></g></g><g clip-path="url(#ee2d06fb72)"><path fill="#e4279e" d="M 20.722656 44.269531 C 9.515625 44.269531 0.425781 53.355469 0.425781 64.566406 C 0.425781 75.773438 9.515625 84.863281 20.722656 84.863281 C 31.929688 84.863281 41.019531 75.773438 41.019531 64.566406 C 41.019531 53.355469 31.929688 44.269531 20.722656 44.269531 Z M 8.351562 54.859375 L 33.066406 54.859375 C 33.128906 54.859375 33.171875 54.886719 33.195312 54.945312 C 33.21875 55 33.207031 55.050781 33.160156 55.09375 L 24.851562 62.980469 L 24.839844 62.992188 L 22.359375 65.347656 C 22.121094 65.574219 21.847656 65.75 21.539062 65.871094 C 21.230469 65.992188 20.914062 66.054688 20.582031 66.050781 C 20.253906 66.050781 19.933594 65.988281 19.628906 65.863281 C 19.324219 65.734375 19.050781 65.558594 18.816406 65.328125 L 16.519531 63.101562 C 16.515625 63.097656 16.511719 63.09375 16.507812 63.089844 L 8.257812 55.09375 C 8.214844 55.050781 8.203125 55 8.226562 54.945312 C 8.25 54.886719 8.292969 54.859375 8.351562 54.859375 Z M 7.1875 72.910156 L 7.1875 55.949219 C 7.1875 55.890625 7.214844 55.847656 7.269531 55.824219 C 7.328125 55.800781 7.375 55.808594 7.417969 55.851562 L 15.257812 63.453125 C 15.320312 63.511719 15.320312 63.574219 15.269531 63.636719 L 7.429688 73 C 7.386719 73.046875 7.335938 73.0625 7.277344 73.039062 C 7.21875 73.015625 7.1875 72.972656 7.1875 72.910156 Z M 33.320312 74.273438 L 8.125 74.273438 C 8.066406 74.273438 8.023438 74.246094 8 74.195312 C 7.976562 74.140625 7.984375 74.09375 8.019531 74.050781 L 16.066406 64.441406 C 16.128906 64.363281 16.195312 64.363281 16.265625 64.429688 L 18.027344 66.136719 C 18.738281 66.828125 19.585938 67.171875 20.574219 67.175781 L 20.59375 67.175781 C 21.578125 67.179688 22.421875 66.839844 23.132812 66.164062 L 25.082031 64.3125 C 25.152344 64.246094 25.21875 64.25 25.28125 64.324219 L 33.425781 74.050781 C 33.460938 74.09375 33.46875 74.140625 33.445312 74.195312 C 33.421875 74.246094 33.378906 74.273438 33.320312 74.273438 Z M 34.257812 72.910156 C 34.257812 72.972656 34.226562 73.015625 34.167969 73.039062 C 34.109375 73.058594 34.058594 73.046875 34.015625 72.996094 L 26.089844 63.535156 C 26.035156 63.46875 26.039062 63.40625 26.101562 63.347656 L 34.027344 55.824219 C 34.070312 55.785156 34.121094 55.777344 34.175781 55.800781 C 34.230469 55.824219 34.257812 55.867188 34.257812 55.925781 Z M 34.257812 72.910156 " fill-opacity="1" fill-rule="nonzero"/></g></svg>